<!DOCTYPE svg PUBLIC "-//W3C//DTD SVG 1.1//EN" "http://www.w3.org/Graphics/SVG/1.1/DTD/svg11.dtd">
<!-- Uploaded to: SVG Repo, www.svgrepo.com, Transformed by: SVG Repo Mixer Tools -->
<svg fill="#ffffff" version="1.1" xmlns="http://www.w3.org/2000/svg" xmlns:xlink="http://www.w3.org/1999/xlink" width="800px" height="800px" viewBox="-51.2 -51.2 614.40 614.40" enable-background="new 0 0 512 512" xml:space="preserve" stroke="#ffffff">
<g id="SVGRepo_bgCarrier" stroke-width="0">
<path transform="translate(-51.2, -51.2), scale(19.2)" d="M16,31.011982574274665C18.92567394676761,31.001307332792656,19.023014536811495,26.081231045688366,21.291159698882595,24.233205199724914C23.16602169104436,22.70561627946124,26.788287354075802,23.58544428696041,27.806896969526175,21.392029175706462C28.823735820653795,19.202427126066194,25.9419198730776,17.003581889717786,25.766737164996407,14.595755192519515C25.57023525430315,11.894903311645503,28.144911914109535,9.00938803329633,26.737662305757247,6.695762648079629C25.378382455131725,4.461003192930078,22.066177530701594,4.027043104523651,19.457885548867694,4.223523312681738C17.137054748225786,4.398349337523179,15.803021652738046,7.0692002093248645,13.559511795326014,7.688460464682057C11.25320622195595,8.325053780097372,8.202338940758585,6.083405090626113,6.528003021478094,7.792467897077776C4.890743757697989,9.463685052502274,6.922070803903699,12.335114159573822,6.723513074751706,14.666242535621123C6.541500202150485,16.803129243273766,4.599776667112207,18.85026672171144,5.417255989709679,20.83297725133009C6.232980278300558,22.811431129668986,9.141609314709985,22.788393200486475,10.683966957243662,24.27190887826992C12.788874478095805,26.29651278423478,13.07946184987166,31.02263907618749,16,31.011982574274665" fill="#69f466" strokewidth="0"/>
</g>
<g id="SVGRepo_tracerCarrier" stroke-linecap="round" stroke-linejoin="round"/>
<g id="SVGRepo_iconCarrier"> <g id="c133de6af664cd4f011a55de6b001b19"> <path display="inline" d="M483.111,0.501l-42.59,461.314l-184.524,49.684L71.47,461.815L28.889,0.501H483.111z M397.29,94.302 H255.831H111.866l6.885,55.708h137.08h7.7l-7.7,3.205l-132.07,55.006l4.38,54.453l127.69,0.414l68.438,0.217l-4.381,72.606 l-64.058,18.035v-0.057l-0.525,0.146l-61.864-15.617l-3.754-45.07h-0.205H132.1h-0.202l7.511,87.007l116.423,34.429v-0.062 l0.21,0.062l115.799-33.802l15.021-172.761h-131.03h-0.323l0.323-0.14l135.83-58.071L397.29,94.302z"> </path> </g> </g>
</svg>