<!DOCTYPE svg PUBLIC "-//W3C//DTD SVG 1.1//EN" "http://www.w3.org/Graphics/SVG/1.1/DTD/svg11.dtd">
<!-- Uploaded to: SVG Repo, www.svgrepo.com, Transformed by: SVG Repo Mixer Tools -->
<svg fill="#ffffff" width="800px" height="800px" viewBox="-2.4 -2.4 28.80 28.80" role="img" xmlns="http://www.w3.org/2000/svg" stroke="#ffffff">
<g id="SVGRepo_bgCarrier" stroke-width="0">
<path transform="translate(-2.4, -2.4), scale(0.8999999999999999)" d="M16,26.75932929138927C18.405335950252862,26.636206046316293,20.147310869014603,29.79974358388856,22.547092822551036,29.595178331372402C24.849139617106605,29.398944343055966,27.611458201327086,27.9573851094472,28.18888215855699,25.720309161672716C28.865343391342947,23.099539561590458,25.4168766542318,20.87305423399794,25.49673606791523,18.167568035507223C25.555432310761223,16.179050118851762,28.145083839913976,15.078709046822091,28.560424228346506,13.133165134307976C29.03461158113008,10.911969355392959,28.999128589367796,8.469095689365696,28.002938406028438,6.427976032797742C26.96672269441437,4.304847043180376,25.1815528834332,2.3284631413336214,22.93311782500065,1.603232491429095C20.684786165084837,0.8780351926205714,18.102872563485235,1.4799481193293353,16,2.5564393440590187C14.09857600509382,3.5298060998716245,13.397508451537071,5.869387571141809,11.809205643714131,7.2977258505378C10.697627555238007,8.297352323832598,9.367535593951782,8.92712145116176,8.076919250359651,9.681553944195372C6.148946233430758,10.80855461862885,3.0808473610359512,10.783915998823465,2.2794383370436897,12.868371335462555C1.5290922782964809,14.82001250702095,4.3306546499322405,16.52404507804785,4.651840361674484,18.59014338378548C5.005102362654253,20.862579532164098,3.4046649183609796,23.241425024683515,4.2259157486861305,25.38951886888221C5.06031872923392,27.57201396040755,6.801063652374223,30.012360608000048,9.121969523640862,30.28237745043636C11.71313380852161,30.58383646568518,13.39476944642929,26.89268465070412,16,26.75932929138927" fill="#e00099" strokewidth="0"/>
</g>
<g id="SVGRepo_tracerCarrier" stroke-linecap="round" stroke-linejoin="round"/>
<g id="SVGRepo_iconCarrier">
<path d="M24 18.588a1.529 1.529 0 0 1-1.895-.72l-3.45-4.771-.5-.667-4.003 5.444a1.466 1.466 0 0 1-1.802.708l5.158-6.92-4.798-6.251a1.595 1.595 0 0 1 1.9.666l3.576 4.83 3.596-4.81a1.435 1.435 0 0 1 1.788-.668L21.708 7.9l-2.522 3.283a.666.666 0 0 0 0 .994l4.804 6.412zM.002 11.576l.42-2.075c1.154-4.103 5.858-5.81 9.094-3.27 1.895 1.489 2.368 3.597 2.275 5.973H1.116C.943 16.447 4.005 19.009 7.92 17.7a4.078 4.078 0 0 0 2.582-2.876c.207-.666.548-.78 1.174-.588a5.417 5.417 0 0 1-2.589 3.957 6.272 6.272 0 0 1-7.306-.933 6.575 6.575 0 0 1-1.64-3.858c0-.235-.08-.455-.134-.666A88.33 88.33 0 0 1 0 11.577zm1.127-.286h9.654c-.06-3.076-2.001-5.258-4.59-5.278-2.882-.04-4.944 2.094-5.071 5.264z"/>
</g>
</svg>