<!DOCTYPE svg PUBLIC "-//W3C//DTD SVG 1.1//EN" "http://www.w3.org/Graphics/SVG/1.1/DTD/svg11.dtd">
<!-- Uploaded to: SVG Repo, www.svgrepo.com, Transformed by: SVG Repo Mixer Tools -->
<svg fill="#ffffff" width="800px" height="800px" viewBox="-3.2 -3.2 38.40 38.40" version="1.1" xmlns="http://www.w3.org/2000/svg" stroke="#ffffff">
<g id="SVGRepo_bgCarrier" stroke-width="0">
<path transform="translate(-3.2, -3.2), scale(1.2)" d="M16,29.696462213993073C19.804643544134805,29.48170909554174,21.774366632704297,25.478699088996294,24.11867025163516,22.47442347879025C26.412309587340218,19.53507523941396,29.898025494155817,16.651482688599643,29.003652611409336,13.032001148209389C28.115927098068397,9.439421173507975,23.891740005582736,7.977556086818065,20.30824674275161,7.053833456963208C17.60057059377576,6.3558715662378376,15.207386827713467,7.994357830272447,12.52510177166525,8.784299477951587C8.53567201421446,9.959199479275014,2.8602193428230085,8.78740212363975,1.3133962393437049,12.647878530676362C-0.25911387917068684,16.5724631833728,3.8850745442570305,20.257526608425138,6.644512426744729,23.460752379691094C9.217980955879048,26.448100189323007,12.06329944988767,29.918669290618944,16,29.696462213993073" fill="#ec7eb3" strokewidth="0"/>
</g>
<g id="SVGRepo_tracerCarrier" stroke-linecap="round" stroke-linejoin="round"/>
<g id="SVGRepo_iconCarrier"> <title>html5</title> <path d="M11.677 13.196l-0.289-3.387 12.536 0.004 0.287-3.268-16.421-0.004 0.87 9.983h11.374l-0.406 4.27-3.627 1.002-3.683-1.009-0.234-2.63h-3.252l0.411 5.198 6.757 1.807 6.704-1.798 0.927-10.166h-11.954zM2.914 1.045h26.172l-2.38 26.874-10.734 3.037-10.673-3.038z"/> </g>
</svg>