<!DOCTYPE svg PUBLIC "-//W3C//DTD SVG 1.1//EN" "http://www.w3.org/Graphics/SVG/1.1/DTD/svg11.dtd">
<!-- Uploaded to: SVG Repo, www.svgrepo.com, Transformed by: SVG Repo Mixer Tools -->
<svg fill="#ffffff" version="1.1" xmlns="http://www.w3.org/2000/svg" xmlns:xlink="http://www.w3.org/1999/xlink" width="800px" height="800px" viewBox="-51.2 -51.2 614.40 614.40" enable-background="new 0 0 512 512" xml:space="preserve" stroke="#ffffff">
<g id="SVGRepo_bgCarrier" stroke-width="0">
<path transform="translate(-51.2, -51.2), scale(19.2)" d="M16,30.749270521104336C18.11549424626127,31.433669972980706,20.417320554012047,30.29581796692803,22.442318585141365,29.37761238558167C24.490989053550795,28.44867288563365,26.929770438260785,27.480992437220838,27.790845088126545,25.402885190215727C28.689518723616576,23.23403700162324,26.343467178640687,20.76723080425265,26.949834194251885,18.49922820049212C27.590977465863553,16.10115150442858,31.77896306441134,14.944683138154488,31.23441805025379,12.522843493898062C30.69087120277309,10.105443151382934,26.510056244729036,10.776551203784656,24.808445795694666,8.975498880520412C23.30524250609281,7.384448603053999,23.908227260155854,4.448047737666915,22.252667959375785,3.0162011966938955C20.601001471590006,1.5877214398752728,18.182834249846742,1.4188956189445467,16.000000000000004,1.357322571178278C13.788027694470138,1.294927601685923,11.266220417426549,1.2313993841087436,9.575117897444038,2.6585948435878795C7.844403188716816,4.119220763520155,8.605061097562796,7.212409831879057,7.079246840677541,8.885936746651705C5.395871894229776,10.732277654676238,1.901507104527785,10.347258714604834,0.6132334795221421,12.488070949736093C-0.6060687696889222,14.514268740925582,-0.24075775093824847,17.321764526959072,0.6962620701122209,19.492978316273906C1.6159546206734956,21.624042252008103,3.6834812912093575,23.04661207312355,5.680451263084434,24.229565502965187C7.371298723739621,25.231179864268263,9.633046670487138,24.721424859305937,11.29448902799275,25.771094215178945C13.249384049641197,27.00616167864112,13.799910622419684,30.037503062149487,16,30.749270521104336" fill="#e65733" strokewidth="0"/>
</g>
<g id="SVGRepo_tracerCarrier" stroke-linecap="round" stroke-linejoin="round"/>
<g id="SVGRepo_iconCarrier"> <g id="5151e0c8492e5103c096af88a51e75c7"> <path display="inline" fill-rule="evenodd" clip-rule="evenodd" d="M1.008,0.5C0.438,0.583,0.48,1.27,0.521,1.958 c0,169.668,0,339.31,0,508.974c169.364,1.135,340.808,0.162,510.979,0.486c0-170.309,0-340.61,0-510.918 C341.342,0.5,171.167,0.5,1.008,0.5z M259.893,452.167c-11.822,11.919-30.478,18.938-53.429,18.938 c-37.643,0-58.543-18.34-71.884-43.711c12.842-8.2,25.966-16.122,39.344-23.795c5.456,15.262,23.886,32.42,44.683,21.857 c13.183-6.699,11.661-27.01,11.661-49.054c0-45.773,0-98.578,0-139.872c-0.042-0.688-0.083-1.375,0.482-1.458 c15.707,0,31.413,0,47.116,0c0,36.788,0,78.402,0,117.529C277.866,395.199,280.91,430.988,259.893,452.167z M470.696,409.917 c-2.674,39.884-35.243,61.063-79.17,61.188c-43.062,0.124-70.624-19.013-87.433-48.567c12.085-8.317,25.778-15.017,38.375-22.822 c10.08,15.761,27.537,30.91,53.429,28.652c16.131-1.406,34.856-14.555,24.285-34.482c-5.127-9.66-17.516-14.567-28.656-19.425 c-35.352-15.424-76.828-29.571-72.861-84.992c1.327-18.514,9.852-31.525,20.889-40.796c11.311-9.5,26.46-15.867,46.629-16.511 c36.629-1.173,56.723,15.12,70.429,37.884c-11.664,8.891-24.514,16.608-37.401,24.281c-4.229-12.995-24.644-25.658-41.772-17.969 c-7.789,3.493-14.788,13.761-10.684,26.224c3.66,11.115,18.589,17.199,30.599,22.344 C433.706,340.486,474.331,355.693,470.696,409.917z"> </path> </g> </g>
</svg>