<!DOCTYPE svg PUBLIC "-//W3C//DTD SVG 1.1//EN" "http://www.w3.org/Graphics/SVG/1.1/DTD/svg11.dtd">
<!-- Uploaded to: SVG Repo, www.svgrepo.com, Transformed by: SVG Repo Mixer Tools -->
<svg fill="#ffffff" width="800px" height="800px" viewBox="-3.2 -3.2 38.40 38.40" id="icon" xmlns="http://www.w3.org/2000/svg" stroke="#ffffff">
<g id="SVGRepo_bgCarrier" stroke-width="0">
<path transform="translate(-3.2, -3.2), scale(1.2)" d="M16,26.895025962081395C19.024620988543997,27.53609879798219,22.456955363965356,28.48574618511865,24.994020658114817,26.718656431174875C27.589904682777945,24.9105988801979,27.886807641022518,21.307905691367075,28.482323785260718,18.20097046528048C29.088802832116315,15.036839429052213,30.21618556638567,11.504174829188683,28.4232929924503,8.827408446587233C26.65841513092596,6.192467682257766,22.8240316548603,6.519942782285283,19.875750441873883,5.35146317751024C16.785693189694133,4.126794085276031,14.044674101611957,0.9291000943261385,10.85517600555002,1.8647122481803429C7.646066532317214,2.806077232819283,6.119231338837471,6.5155187975769975,5.075791549200444,9.692905310247284C4.201138869648219,12.356316898420387,4.716510829441549,15.175153743872102,5.611673405746009,17.831742262978253C6.378486875039263,20.10742705224894,7.9125440174537545,21.90302462278353,9.722071030592032,23.481744403343207C11.572737780520104,25.096356500384214,13.597373506405894,26.385785767791724,16,26.895025962081395" fill="#df72fd" strokewidth="0"/>
</g>
<g id="SVGRepo_tracerCarrier" stroke-linecap="round" stroke-linejoin="round"/>
<g id="SVGRepo_iconCarrier"> <defs> <style> .cls-1 { fill: none; } </style> </defs> <path d="M27,24a2.9609,2.9609,0,0,0-1.2854.3008L21.4141,20H18v2h2.5859l3.7146,3.7148A2.9665,2.9665,0,0,0,24,27a3,3,0,1,0,3-3Zm0,4a1,1,0,1,1,1-1A1.0009,1.0009,0,0,1,27,28Z"/> <path d="M27,13a2.9948,2.9948,0,0,0-2.8157,2H18v2h6.1843A2.9947,2.9947,0,1,0,27,13Zm0,4a1,1,0,1,1,1-1A1.0009,1.0009,0,0,1,27,17Z"/> <path d="M27,2a3.0033,3.0033,0,0,0-3,3,2.9657,2.9657,0,0,0,.3481,1.373L20.5957,10H18v2h3.4043l4.3989-4.2524A2.9987,2.9987,0,1,0,27,2Zm0,4a1,1,0,1,1,1-1A1.0009,1.0009,0,0,1,27,6Z"/> <path d="M18,6h2V4H18a3.9756,3.9756,0,0,0-3,1.3823A3.9756,3.9756,0,0,0,12,4H11a9.01,9.01,0,0,0-9,9v6a9.01,9.01,0,0,0,9,9h1a3.9756,3.9756,0,0,0,3-1.3823A3.9756,3.9756,0,0,0,18,28h2V26H18a2.0023,2.0023,0,0,1-2-2V8A2.0023,2.0023,0,0,1,18,6ZM12,26H11a7.0047,7.0047,0,0,1-6.92-6H6V18H4V14H7a3.0033,3.0033,0,0,0,3-3V9H8v2a1.0009,1.0009,0,0,1-1,1H4.08A7.0047,7.0047,0,0,1,11,6h1a2.0023,2.0023,0,0,1,2,2v4H12v2h2v4H12a3.0033,3.0033,0,0,0-3,3v2h2V21a1.0009,1.0009,0,0,1,1-1h2v4A2.0023,2.0023,0,0,1,12,26Z"/> <rect id="_Transparent_Rectangle_" data-name="&lt;Transparent Rectangle&gt;" class="cls-1" width="32" height="32"/> </g>
</svg>