<!DOCTYPE svg PUBLIC "-//W3C//DTD SVG 1.1//EN" "http://www.w3.org/Graphics/SVG/1.1/DTD/svg11.dtd">
<!-- Uploaded to: SVG Repo, www.svgrepo.com, Transformed by: SVG Repo Mixer Tools -->
<svg fill="#ffffff" width="800px" height="800px" viewBox="-3.2 -3.2 38.40 38.40" version="1.1" xmlns="http://www.w3.org/2000/svg" stroke="#ffffff">
<g id="SVGRepo_bgCarrier" stroke-width="0">
<path transform="translate(-3.2, -3.2), scale(1.2)" d="M16,31.470457007487614C19.115272701447893,32.61975441693912,23.151915981600382,31.36827901280642,25.37118351803068,28.898327567634876C27.541712274463567,26.482620335076,26.349721445317854,22.71755299666378,26.759230495716817,19.49588590436813C27.07220895884,17.033638942405073,27.92184224027291,14.711605145916337,27.485043679361752,12.26828309648012C26.993117559365466,9.516593775037961,26.183166733838615,6.70602895972326,24.133051236106084,4.805815320357857C21.944369527053702,2.777167256202052,18.939266997217928,1.1068232615735107,16,1.6230113191737061C13.138981267441789,2.1254575765959958,11.569252047658905,5.109401871666073,9.707554352231433,7.33919157486382C8.301881231580406,9.022792225059506,7.736126649325952,11.082171916605875,6.557842919351883,12.932057189572426C4.795258429813929,15.699284646432316,-0.06569805382365601,17.775011387980705,1.1093175940449687,20.83827600404359C2.3126486709956082,23.975358915337615,7.856130634825087,21.492972805017207,10.59058732346596,23.445417808349028C13.281877727269467,25.36704140664883,12.897485867838618,30.32586653448584,16,31.470457007487614" fill="#528fa3" strokewidth="0"/>
</g>
<g id="SVGRepo_tracerCarrier" stroke-linecap="round" stroke-linejoin="round"/>
<g id="SVGRepo_iconCarrier"> <title>mongodb</title> <path d="M15.821 23.185s0-10.361 0.344-10.36c0.266 0 0.612 13.365 0.612 13.365-0.476-0.056-0.956-2.199-0.956-3.005zM22.489 12.945c-0.919-4.016-2.932-7.469-5.708-10.134l-0.007-0.006c-0.338-0.516-0.647-1.108-0.895-1.732l-0.024-0.068c0.001 0.020 0.001 0.044 0.001 0.068 0 0.565-0.253 1.070-0.652 1.409l-0.003 0.002c-3.574 3.034-5.848 7.505-5.923 12.508l-0 0.013c-0.001 0.062-0.001 0.135-0.001 0.208 0 4.957 2.385 9.357 6.070 12.115l0.039 0.028 0.087 0.063q0.241 1.784 0.412 3.576h0.601c0.166-1.491 0.39-2.796 0.683-4.076l-0.046 0.239c0.396-0.275 0.742-0.56 1.065-0.869l-0.003 0.003c2.801-2.597 4.549-6.297 4.549-10.404 0-0.061-0-0.121-0.001-0.182l0 0.009c-0.003-0.981-0.092-1.94-0.261-2.871l0.015 0.099z"/> </g>
</svg>