<!DOCTYPE svg PUBLIC "-//W3C//DTD SVG 1.1//EN" "http://www.w3.org/Graphics/SVG/1.1/DTD/svg11.dtd">
<!-- Uploaded to: SVG Repo, www.svgrepo.com, Transformed by: SVG Repo Mixer Tools -->
<svg fill="#ffffff" width="800px" height="800px" viewBox="-3.2 -3.2 38.40 38.40" version="1.1" xmlns="http://www.w3.org/2000/svg" stroke="#ffffff">
<g id="SVGRepo_bgCarrier" stroke-width="0">
<path transform="translate(-3.2, -3.2), scale(1.2)" d="M16,27.960200295832596C18.380914160084348,28.194037873899063,21.056447384667056,28.27200390746864,22.93347239251793,26.788693632944607C24.785410823231956,25.32520790921989,25.021502236487215,22.670875415723874,25.59171716635982,20.38039045649538C26.070678541857607,18.456460076639903,26.49672519247472,16.478768572071267,25.97640214160667,14.565609919871996C25.487683457850782,12.768656321988582,23.520594207199895,11.825695813916193,22.79827192423879,10.109263844878068C21.57781156410617,7.209121860488798,23.30056596864397,2.279465935486659,20.34818313368377,1.191448189259722C17.49852836658713,0.14128798628485062,16.05808854527429,5.464158868101666,13.23556430057856,6.585196615750512C10.832294873393293,7.539716581596024,7.641921358489215,5.38338547620463,5.648048462215344,7.0299829310628486C3.69752196500187,8.640783685688318,4.258325428350611,11.756400728938587,3.935572010716239,14.265397125675573C3.6178742545338047,16.735092199256915,2.610595923323965,19.38202571722761,3.776035480221692,21.58249754389873C4.932953979761969,23.76688072269657,7.698319023428274,24.3642459067461,9.889815739144739,25.50763229436729C11.875807067916872,26.54379878048014,13.770680840776002,27.741251372066422,16,27.960200295832596" fill="#f4ef57" strokewidth="0"/>
</g>
<g id="SVGRepo_tracerCarrier" stroke-linecap="round" stroke-linejoin="round"/>
<g id="SVGRepo_iconCarrier"> <title>nodejs</title> <path d="M24.871 18.491c0-2.374-1.605-3.007-4.982-3.453-3.413-0.451-3.76-0.685-3.76-1.483 0-0.66 0.294-1.541 2.822-1.541 2.258 0 3.090 0.486 3.433 2.008 0.032 0.143 0.158 0.248 0.309 0.249h1.426c0.092-0.001 0.174-0.040 0.232-0.101l0-0c0.053-0.057 0.085-0.133 0.085-0.217 0-0.010-0-0.019-0.001-0.029l0 0.001c-0.221-2.622-1.963-3.844-5.483-3.844-3.134 0-5.004 1.322-5.004 3.54 0 2.406 1.859 3.070 4.867 3.368 3.599 0.352 3.878 0.878 3.878 1.586 0 1.228-0.986 1.752-3.302 1.752-2.908 0-3.548-0.73-3.763-2.177-0.025-0.153-0.156-0.269-0.315-0.269-0 0-0.001 0-0.001 0h-1.421c-0.001 0-0.001 0-0.002 0-0.174 0-0.315 0.141-0.315 0.315 0 0 0 0.001 0 0.001v-0c0 1.852 1.007 4.059 5.817 4.059 3.484 0.001 5.481-1.369 5.481-3.765zM15.998 30.996c-0 0-0.001 0-0.001 0-0.424 0-0.821-0.115-1.162-0.315l0.011 0.006-3.669-2.171c-0.547-0.306-0.28-0.415-0.1-0.479 0.633-0.2 1.183-0.456 1.691-0.773l-0.031 0.018c0.034-0.016 0.075-0.026 0.117-0.026 0.058 0 0.111 0.018 0.156 0.048l-0.001-0.001 2.819 1.673c0.049 0.027 0.108 0.042 0.17 0.042s0.121-0.016 0.172-0.043l-0.002 0.001 10.991-6.343c0.101-0.062 0.167-0.171 0.167-0.296 0-0 0-0.001 0-0.001v0-12.684c-0-0.128-0.068-0.239-0.17-0.302l-0.002-0.001-10.986-6.338c-0.049-0.028-0.107-0.044-0.169-0.044s-0.121 0.016-0.171 0.045l0.002-0.001-10.983 6.34c-0.104 0.062-0.172 0.174-0.174 0.301v12.684c0 0.126 0.070 0.235 0.172 0.293l0.002 0.001 3.010 1.739c1.633 0.817 2.634-0.145 2.634-1.112v-12.523c0-0 0-0 0-0 0-0.174 0.141-0.316 0.316-0.316 0.001 0 0.003 0 0.004 0h1.393c0 0 0.001 0 0.001 0 0.175 0 0.317 0.141 0.318 0.316v12.523c0.016 0.118 0.026 0.255 0.026 0.394 0 1.682-1.363 3.045-3.045 3.045-0.082 0-0.164-0.003-0.245-0.010l0.011 0.001c-0.024 0-0.053 0.001-0.082 0.001-0.906 0-1.753-0.256-2.47-0.701l0.020 0.012-2.884-1.658c-0.694-0.409-1.152-1.153-1.152-2.004 0-0 0-0 0-0v0-12.684c0-0.851 0.458-1.594 1.141-1.997l0.011-0.006 10.991-6.351c0.333-0.186 0.731-0.295 1.155-0.295s0.821 0.109 1.167 0.301l-0.012-0.006 10.989 6.351c0.695 0.409 1.154 1.152 1.155 2.003v12.684c-0.002 0.851-0.46 1.595-1.144 1.998l-0.011 0.006-10.989 6.346c-0.33 0.194-0.726 0.309-1.149 0.309-0.002 0-0.005 0-0.007 0h0z"/> </g>
</svg>