<!DOCTYPE svg PUBLIC "-//W3C//DTD SVG 1.1//EN" "http://www.w3.org/Graphics/SVG/1.1/DTD/svg11.dtd">
<!-- Uploaded to: SVG Repo, www.svgrepo.com, Transformed by: SVG Repo Mixer Tools -->
<svg fill="#ffffff" version="1.1" xmlns="http://www.w3.org/2000/svg" xmlns:xlink="http://www.w3.org/1999/xlink" width="800px" height="800px" viewBox="-51.2 -51.2 614.40 614.40" enable-background="new 0 0 512 512" xml:space="preserve" stroke="#ffffff">
<g id="SVGRepo_bgCarrier" stroke-width="0">
<path transform="translate(-51.2, -51.2), scale(19.2)" d="M16,27.134239548817277C18.57845350271545,27.696311987585272,21.041119310777713,29.908005464486266,23.54012546967715,29.05988040892497C25.981149907594727,28.23143347626631,26.820198188639033,25.223202113554024,28.14553497664682,23.01222788821906C29.49108632657236,20.76753100779673,31.11808818648642,18.605067086622718,31.3686834666878,16C31.629743843887763,13.286142836695,31.31455401935661,10.261522242410033,29.573954201063167,8.163073888048533C27.864607218544492,6.102303615180226,24.950281315852752,5.503170566145924,22.30721219070256,5.075588031585369C20.174828871970508,4.730621698543932,18.146615491646227,5.726103081102646,16,5.967147309333086C14.127484862264533,6.177412709905182,12.220274444451466,5.731453874540997,10.460800956934694,6.405825824173977C8.540914294752458,7.141681022127249,6.774596173847468,8.314117062921822,5.555974483186093,9.970139056444163C4.268950608341764,11.719114853661283,3.121209113793139,13.846577837125038,3.4007082767784595,15.999999999999998C3.6766582535976258,18.126077193148646,5.824736417960968,19.404085874214662,7.012124112673698,21.189152562990778C8.112563111563837,22.843504388174686,8.48845358927457,25.04388236500141,10.145644276402885,26.14004155885185C11.825170998082369,27.250975063116652,14.032505131713524,26.705348883262648,16,27.134239548817277" fill="#f7c6fb" strokewidth="0"/>
</g>
<g id="SVGRepo_tracerCarrier" stroke-linecap="round" stroke-linejoin="round"/>
<g id="SVGRepo_iconCarrier"> <g id="5151e0c8492e5103c096af88a51ec286"> <path display="inline" d="M194.734,246.879h121.768c33.9,0,60.956-27.908,60.956-61.95V68.846c0-33.035-27.87-57.855-60.956-63.371 c-20.943-3.484-42.673-5.069-63.51-4.971c-20.845,0.097-40.74,1.874-58.258,4.971c-51.586,9.117-60.952,28.191-60.952,63.371 v46.463H255.69v15.486H133.782h-45.75c-35.434,0-66.459,21.295-76.158,61.808c-11.192,46.435-11.694,75.409,0,123.898 c8.666,36.088,29.359,61.807,64.79,61.807h41.917v-55.699C118.581,282.37,153.39,246.879,194.734,246.879z M187.063,84.333 c-12.636,0-22.877-10.355-22.877-23.161c0-12.849,10.241-23.3,22.877-23.3c12.594,0,22.873,10.451,22.873,23.3 C209.936,73.979,199.658,84.333,187.063,84.333z M499.37,192.603c-8.761-35.27-25.484-61.808-60.96-61.808h-45.75v54.134 c0,41.972-35.582,77.292-76.158,77.292H194.734c-33.349,0-60.952,28.547-60.952,61.954v116.079 c0,33.037,28.726,52.476,60.952,61.943c38.589,11.353,75.59,13.409,121.768,0c30.688-8.876,60.956-26.764,60.956-61.943v-46.461 H255.69v-15.486h121.768h60.952c35.431,0,48.638-24.715,60.96-61.807C512.092,278.314,511.549,241.589,499.37,192.603z M324.178,424.766c12.64,0,22.873,10.356,22.873,23.156c0,12.85-10.233,23.305-22.873,23.305 c-12.595,0-22.877-10.455-22.877-23.305C301.301,435.122,311.583,424.766,324.178,424.766z"> </path> </g> </g>
</svg>