<!DOCTYPE svg PUBLIC "-//W3C//DTD SVG 1.1//EN" "http://www.w3.org/Graphics/SVG/1.1/DTD/svg11.dtd">
<!-- Uploaded to: SVG Repo, www.svgrepo.com, Transformed by: SVG Repo Mixer Tools -->
<svg fill="#ffffff" width="800px" height="800px" viewBox="-2.4 -2.4 28.80 28.80" xmlns="http://www.w3.org/2000/svg" xml:space="preserve" stroke="#ffffff">
<g id="SVGRepo_bgCarrier" stroke-width="0">
<path transform="translate(-2.4, -2.4), scale(0.8999999999999999)" d="M16,25.545790565145367C18.86322437095611,25.523950849476325,21.219017754193047,29.252753108317414,23.93567492483173,28.348151213097776C26.515252370112165,27.48919459866493,27.555206730749767,24.186609122436604,28.08835700169446,21.520567665469162C28.568286063624328,19.12066121275118,27.46225058753613,16.78963008257618,26.713064133041822,14.45969391549251C26.082161287519156,12.49761445065292,25.36816191192121,10.608327795342861,24.06588755209468,9.010868650772268C22.732838677223597,7.375659373054468,21.097723864278546,6.061900070918531,19.169377835663404,5.206090349862709C17.03197291986144,4.25749923725545,14.7683253281632,3.754728387494739,12.431724019884491,3.8475680296855668C9.565036204360771,3.9614694771096826,6.450659808979067,3.9853889896188406,4.228274479512486,5.79974177195451C1.8936962460395503,7.70568870983255,0.06719637435854031,10.740040917746018,0.3095946241983931,13.744060282977685C0.5488215067844484,16.708777183563,4.065544479669799,18.18488539546054,5.440470440054952,20.82237556708716C6.7080846991200485,23.2540120668165,5.482951662920785,27.350100008314673,7.986140417202341,28.46980891559346C10.635494221436158,29.654899351965675,13.097755203276861,25.567927915541425,16,25.545790565145367" fill="#ff7575" strokewidth="0"/>
</g>
<g id="SVGRepo_tracerCarrier" stroke-linecap="round" stroke-linejoin="round"/>
<g id="SVGRepo_iconCarrier">
<path fill-rule="evenodd" clip-rule="evenodd" d="M12 6.036c-2.667 0-4.333 1.325-5 3.976 1-1.325 2.167-1.822 3.5-1.491.761.189 1.305.738 1.906 1.345C13.387 10.855 14.522 12 17 12c2.667 0 4.333-1.325 5-3.976-1 1.325-2.166 1.822-3.5 1.491-.761-.189-1.305-.738-1.907-1.345-.98-.99-2.114-2.134-4.593-2.134zM7 12c-2.667 0-4.333 1.325-5 3.976 1-1.326 2.167-1.822 3.5-1.491.761.189 1.305.738 1.907 1.345.98.989 2.115 2.134 4.594 2.134 2.667 0 4.333-1.325 5-3.976-1 1.325-2.167 1.822-3.5 1.491-.761-.189-1.305-.738-1.906-1.345C10.613 13.145 9.478 12 7 12z"/>
</g>
</svg>